<?xml version="1.0" standalone="no"?>
<!DOCTYPE svg PUBLIC "-//W3C//DTD SVG 20010904//EN"
 "http://www.w3.org/TR/2001/REC-SVG-20010904/DTD/svg10.dtd">
<svg version="1.0" xmlns="http://www.w3.org/2000/svg"
 width="1052.000000pt" height="1052.000000pt" viewBox="0 0 1052.000000 1052.000000"
 preserveAspectRatio="xMidYMid meet">
<metadata>
Created by potrace 1.11, written by Peter Selinger 2001-2013
</metadata>
<g transform="translate(0.000000,1052.000000) scale(0.100000,-0.100000)"
fill="#000000" stroke="none">
<path d="M1800 3295 l0 -2465 510 0 510 0 0 681 0 681 237 284 c191 230 239
282 249 272 7 -7 303 -440 657 -963 l644 -950 611 -3 c337 -1 612 0 612 3 0 2
-402 588 -893 1302 -491 714 -907 1319 -925 1344 l-31 47 824 1113 825 1114
-572 3 c-535 2 -573 1 -589 -15 -25 -27 -1301 -1751 -1359 -1838 -72 -107
-192 -325 -278 -505 -73 -152 -74 -154 -68 -100 55 536 56 564 56 1548 l0 912
-510 0 -510 0 0 -2465z"/>
<path d="M6220 3295 l0 -2465 510 0 510 0 0 681 0 681 237 284 c191 230 239
282 249 272 7 -7 303 -440 657 -963 l644 -950 611 -3 c337 -1 612 0 612 3 0 2
-402 588 -893 1302 -491 714 -907 1319 -925 1344 l-31 47 824 1113 825 1114
-572 3 c-535 2 -573 1 -589 -15 -25 -27 -1301 -1751 -1359 -1838 -72 -107
-192 -325 -278 -505 -73 -152 -74 -154 -68 -100 55 536 56 564 56 1548 l0 912
-510 0 -510 0 0 -2465z"/>
</g>
</svg>
